PathFileType	4	(X/Y/Z)	D:\TRACE\spot_10-12-23\spot_arm_body_motion_1_5-v60.trc
DataRate	CameraRate	NumFrames	NumMarkers	Units	OrigDataRate	OrigDataStartFrame	OrigNumFrames
100.00	100.00	      24	9	mm	100.00	876	      7000
Frame#	Time	front left toe			Front right toe			aft left toe			aft right toe			Arm			FL body			FR body			AL Body			AR Body			
		X1	Y1	Z1	X2	Y2	Z2	X3	Y3	Z3	X4	Y4	Z4	X5	Y5	Z5	X6	Y6	Z6	X7	Y7	Z7	X8	Y8	Z8	X9	Y9	Z9	

876	8.750	-179.00203	9.77651	-383.96548	294.42258	114.81382	-393.71790	-98.28623	19.15733	136.16258	255.29721	27.29412	167.43483	70.02760	768.45642	-727.77094	-42.37038	589.32886	-445.62823	111.58069	592.65112	-446.58353	-42.98162	558.72791	436.10434	98.71591	556.59430	438.35553	
877	8.760	-179.11215	10.31045	-384.17648	291.67743	123.30153	-395.29547	-98.38615	19.27509	136.09630	255.19896	27.20004	167.57117	69.37592	768.03711	-728.17548	-41.24731	590.14508	-445.32150	113.67097	593.50903	-446.20508	-42.12008	558.22675	436.39560	99.14806	556.18701	438.95313	
878	8.770	-179.22556	10.72045	-384.23682	287.79633	128.20213	-397.95590	-98.74525	19.58390	136.05666	254.62448	27.20435	167.67685	68.21041	766.79694	-729.27777	-40.14193	590.82220	-445.10416	113.78147	593.99255	-445.39456	-42.22919	558.34265	437.03033	99.41991	555.98438	439.22427	
879	8.780	-179.36488	10.78750	-384.52972	284.64194	131.55327	-401.79239	-99.40309	19.81477	136.15421	253.92842	27.16285	167.71861	66.00503	764.80621	-730.83978	-38.78619	591.37537	-444.60565	116.16489	594.38116	-444.91656	-41.71975	558.28851	437.36896	100.01763	556.05426	440.19476	
880	8.790	-179.57079	10.52840	-384.71304	281.13586	133.37552	-407.22690	-99.81616	19.80737	136.08766	252.77919	26.48686	167.59843	63.23790	762.26477	-732.94080	-37.55654	591.45337	-444.26288	117.34955	594.29877	-444.69986	-41.32697	558.52405	437.70001	100.26521	556.26709	440.75543	
881	8.800	-179.85988	10.02014	-384.78247	275.29642	133.52167	-414.18323	-100.33376	19.91068	135.92184	252.34261	26.57724	167.55211	59.79066	759.37262	-735.38947	-36.59455	591.39307	-444.09799	117.49241	594.23553	-444.38031	-41.05324	559.01318	437.71066	100.48412	556.49829	440.67291	
882	8.810	-180.45842	9.57064	-384.89053	269.87079	132.44125	-420.31979	-100.81046	20.25768	135.76930	251.80438	26.65648	167.32242	56.88409	756.82104	-737.50537	-35.58128	591.28394	-444.02341	118.99818	593.98676	-443.92715	-39.82418	559.72656	437.78357	101.87344	557.13562	440.48080	
883	8.820	-181.27499	9.35247	-384.74191	264.58997	129.94539	-425.01715	-101.16438	20.92168	135.59290	251.28502	26.53074	167.11873	54.71063	754.90167	-739.40942	-35.53893	591.03485	-444.02887	119.52707	593.58563	-444.65146	-38.17220	560.53003	437.76416	103.31152	557.55737	440.21707	
884	8.830	-182.68405	8.79231	-384.55594	259.99576	128.53528	-428.68207	-101.33287	21.48915	135.54417	251.05327	26.33536	166.67783	53.01815	753.24756	-741.16797	-35.47068	590.49347	-444.22772	118.37399	592.86365	-445.14883	-36.09883	560.97290	437.72299	105.33430	558.29578	439.77133	
885	8.840	-183.55280	8.04220	-384.27524	256.14447	127.40265	-431.31998	-101.56750	21.82953	135.60585	250.80106	25.99579	166.29089	52.40720	752.42267	-742.66357	-35.65500	589.20099	-444.51111	118.20964	591.50476	-445.76886	-34.24094	561.79407	437.71786	107.55861	558.83417	439.33661	
886	8.850	-184.68456	7.50359	-384.02866	254.50844	126.63858	-433.24667	-101.89898	22.22426	135.54970	250.67043	25.57456	165.95050	52.86126	751.75885	-743.46021	-36.24173	587.83380	-444.83835	118.24288	590.07971	-446.33990	-31.57810	562.52435	437.22189	109.74870	559.18970	438.24521	
887	8.860	-185.56241	7.08303	-383.84695	253.64044	126.83134	-435.39963	-101.81773	22.33743	135.50664	250.58438	25.33108	165.66940	54.08405	751.76794	-744.13104	-36.46717	586.45453	-445.41943	117.54968	589.00739	-447.46402	-29.55993	562.72241	436.83490	112.01907	559.78595	437.54239	
888	8.870	-186.31065	6.87581	-383.82730	252.45163	127.12264	-437.91153	-101.98815	22.51569	135.55380	250.22028	25.26204	165.37248	55.89083	752.00958	-744.45575	-36.31795	585.25482	-445.96548	117.36758	587.78375	-448.26712	-28.06333	562.98486	436.29849	113.96542	560.09900	436.57990	
889	8.880	-186.73488	6.86137	-384.01608	251.49800	127.23663	-439.79367	-102.65179	22.84297	135.60204	249.77769	25.29183	165.20229	57.95662	752.74725	-744.62445	-35.76509	584.40875	-446.72757	118.04990	587.28229	-449.33771	-26.38597	563.17798	435.56448	115.73569	560.46021	435.93127	
890	8.890	-187.00989	6.97452	-384.17969	250.03241	127.13024	-440.94846	-103.41460	22.92820	135.58475	249.25603	25.34785	165.35808	60.05361	753.37054	-744.41443	-34.73875	583.86353	-447.58557	119.10605	586.61890	-449.79205	-25.06877	562.81628	434.70056	116.67038	560.23279	435.09613	
891	8.900	-187.14490	7.00376	-384.32663	248.38298	126.08928	-441.80981	-103.98005	22.70310	135.47328	248.56720	25.30477	165.43410	61.38970	754.33923	-744.25934	-33.25768	583.33881	-448.18582	120.56330	586.17804	-450.89526	-23.70092	562.30713	433.70914	117.55070	560.07928	434.47583	
892	8.910	-187.24730	7.16411	-384.61105	247.59067	123.68726	-442.06735	-104.41635	22.53400	135.44492	247.78085	25.20403	165.42328	62.30726	755.14844	-743.98962	-31.47700	583.16425	-448.99316	122.43304	585.44946	-450.52341	-23.82697	562.21387	433.10742	117.76062	559.85522	433.77161	
893	8.920	-187.40096	7.50666	-385.10046	247.59192	118.42513	-441.95889	-104.90229	22.43831	135.11519	247.15997	25.30741	165.50351	62.81813	755.90100	-743.65271	-29.23517	583.25134	-450.02936	124.75223	585.95776	-451.95209	-23.12629	562.18854	432.30981	118.35281	559.76868	433.24979	
894	8.930	-187.53984	8.15849	-385.65872	247.40269	111.03391	-442.14853	-106.51460	23.70228	135.27531	246.42290	25.24647	165.63512	62.63712	756.64136	-743.18152	-26.79570	583.38324	-450.83527	127.27541	586.24719	-452.31812	-22.00662	562.13812	431.27240	118.84487	559.84033	432.93750	
895	8.940	-187.62970	8.59172	-385.99490	247.49254	101.82862	-442.34875	-106.80961	23.08718	134.61508	245.41725	25.23637	165.79462	61.89709	756.96930	-742.98560	-24.27008	583.48376	-451.51221	129.81192	586.10486	-452.72589	-22.48846	562.18982	430.77014	119.58410	560.09863	433.00577	
896	8.950	-187.75694	8.76976	-386.25983	247.72015	90.86404	-442.11835	-107.21291	23.21003	134.55930	244.80128	25.36275	165.99515	60.78769	757.14404	-742.73425	-21.71011	583.50336	-452.27496	132.03259	585.51379	-452.05981	-21.91809	562.47028	429.86047	119.66446	560.08136	431.90033	
897	8.960	-188.04973	8.77537	-386.42953	248.03848	79.48261	-440.83173	-107.64754	24.42481	134.24580	244.07698	25.28818	165.99591	59.45565	756.99420	-742.51587	-19.41612	583.34717	-453.10846	134.51221	585.88922	-453.26868	-21.13214	562.88513	429.25522	120.49523	560.29834	431.45551	
898	8.970	-188.68990	8.73898	-386.48807	248.15909	68.21384	-439.34195	-107.97511	24.80490	134.05684	243.42310	24.99427	165.94695	57.98980	756.88489	-742.53943	-17.33239	583.12134	-453.72607	136.77371	585.81085	-454.16516	-19.91232	563.15833	429.33804	121.87764	560.80542	431.30994	
899	8.980	-189.49551	8.68099	-386.56686	247.68176	57.09597	-437.82211	-108.44017	25.10528	133.95409	242.98859	24.75915	165.86307	56.52345	756.61871	-742.79962	-15.47219	583.12134	-454.33337	138.13063	585.56213	-454.29767	-18.36931	563.38739	427.79541	123.19604	561.10901	430.48441	
